<svg width="22" height="18" viewBox="0 0 22 18" fill="none" xmlns="http://www.w3.org/2000/svg"><path d="M4.51211 14.7754C4.17878 14.5921 3.92044 14.3462 3.73711 14.0379C3.55378 13.7296 3.46211 13.3837 3.46211 13.0004V8.20039L1.06211 6.87539C0.878776 6.77539 0.745443 6.65039 0.662109 6.50039C0.578776 6.35039 0.537109 6.18372 0.537109 6.00039C0.537109 5.81706 0.578776 5.65039 0.662109 5.50039C0.745443 5.35039 0.878776 5.22539 1.06211 5.12539L9.51211 0.525391C9.66211 0.442057 9.81628 0.379557 9.97461 0.337891C10.1329 0.296224 10.2954 0.275391 10.4621 0.275391C10.6288 0.275391 10.7913 0.296224 10.9496 0.337891C11.1079 0.379557 11.2621 0.442057 11.4121 0.525391L20.9371 5.72539C21.1038 5.80872 21.2329 5.92956 21.3246 6.08789C21.4163 6.24622 21.4621 6.41706 21.4621 6.60039V13.0004C21.4621 13.2837 21.3663 13.5212 21.1746 13.7129C20.9829 13.9046 20.7454 14.0004 20.4621 14.0004C20.1788 14.0004 19.9413 13.9046 19.7496 13.7129C19.5579 13.5212 19.4621 13.2837 19.4621 13.0004V7.10039L17.4621 8.20039V13.0004C17.4621 13.3837 17.3704 13.7296 17.1871 14.0379C17.0038 14.3462 16.7454 14.5921 16.4121 14.7754L11.4121 17.4754C11.2621 17.5587 11.1079 17.6212 10.9496 17.6629C10.7913 17.7046 10.6288 17.7254 10.4621 17.7254C10.2954 17.7254 10.1329 17.7046 9.97461 17.6629C9.81628 17.6212 9.66211 17.5587 9.51211 17.4754L4.51211 14.7754ZM10.4621 9.70039L17.3121 6.00039L10.4621 2.30039L3.61211 6.00039L10.4621 9.70039ZM10.4621 15.7254L15.4621 13.0254V9.25039L11.4371 11.4754C11.2871 11.5587 11.1288 11.6212 10.9621 11.6629C10.7954 11.7046 10.6288 11.7254 10.4621 11.7254C10.2954 11.7254 10.1288 11.7046 9.96211 11.6629C9.79544 11.6212 9.63711 11.5587 9.48711 11.4754L5.46211 9.25039V13.0254L10.4621 15.7254Z" fill="#EA763F"></path></svg>